HIERARCHY
ROOT Hips
{
	OFFSET 0.000000 0.000000 0.000000
	CHANNELS 6 Xposition Yposition Zposition Zrotation Yrotation Xrotation 
	JOINT LHipJoint
	{
		OFFSET 0.000000 0.000000 0.000000
		CHANNELS 3 Zrotation Yrotation Xrotation
		JOINT LeftUpLeg
		{
			OFFSET 1.363060 -1.794630 0.839290
			CHANNELS 3 Zrotation Yrotation Xrotation
			JOINT LeftLeg
			{
				OFFSET 2.448110 -6.726130 0.000000
				CHANNELS 3 Zrotation Yrotation Xrotation
				JOINT LeftFoot
				{
					OFFSET 2.562200 -7.039590 0.000000
					CHANNELS 3 Zrotation Yrotation Xrotation
					JOINT LeftToeBase
					{
						OFFSET 0.157640 -0.433110 2.322550
						CHANNELS 3 Zrotation Yrotation Xrotation
						End Site
						{
							OFFSET 0.000000 0.000000 0.000000
						}
					}
				}
			}
		}
	}
	JOINT RHipJoint
	{
		OFFSET 0.000000 0.000000 0.000000
		CHANNELS 3 Zrotation Yrotation Xrotation
		JOINT RightUpLeg
		{
			OFFSET -1.305520 -1.794630 0.839290
			CHANNELS 3 Zrotation Yrotation Xrotation
			JOINT RightLeg
			{
				OFFSET -2.542530 -6.985550 0.000000
				CHANNELS 3 Zrotation Yrotation Xrotation
				JOINT RightFoot
				{
					OFFSET -2.568260 -7.056230 0.000000
					CHANNELS 3 Zrotation Yrotation Xrotation
					JOINT RightToeBase
					{
						OFFSET -0.164730 -0.452590 2.363150
						CHANNELS 3 Zrotation Yrotation Xrotation
						End Site
						{
							OFFSET 0.000000 0.000000 0.000000
						}
					}
				}
			}
		}
	}
	JOINT LowerBack
	{
		OFFSET 0.000000 0.000000 0.000000
		CHANNELS 3 Zrotation Yrotation Xrotation
		JOINT Spine
		{
			OFFSET 0.028270 2.035590 -0.193380
			CHANNELS 3 Zrotation Yrotation Xrotation
			JOINT Spine1
			{
				OFFSET 0.056720 2.048850 -0.042750
				CHANNELS 3 Zrotation Yrotation Xrotation
				JOINT Neck
				{
					OFFSET 0.000000 0.000000 0.000000
					CHANNELS 3 Zrotation Yrotation Xrotation
					JOINT Neck1
					{
						OFFSET -0.054170 1.746240 0.172020
						CHANNELS 3 Zrotation Yrotation Xrotation
						JOINT Head
						{
							OFFSET 0.104070 1.761360 -0.123970
							CHANNELS 3 Zrotation Yrotation Xrotation
							End Site
							{
								OFFSET 0.000000 0.000000 0.000000
							}
						}
					}
				}
				JOINT LeftShoulder
				{
					OFFSET 0.000000 0.000000 0.000000
					CHANNELS 3 Zrotation Yrotation Xrotation
					JOINT LeftArm
					{
						OFFSET 3.362410 1.200890 -0.311210
						CHANNELS 3 Zrotation Yrotation Xrotation
						JOINT LeftForeArm
						{
							OFFSET 4.983000 -0.000000 -0.000000
							CHANNELS 3 Zrotation Yrotation Xrotation
							JOINT LeftHand
							{
								OFFSET 3.483560 -0.000000 -0.000000
								CHANNELS 3 Zrotation Yrotation Xrotation
								JOINT LeftFingerBase
								{
									OFFSET 0.000000 0.000000 0.000000
									CHANNELS 3 Zrotation Yrotation Xrotation
									JOINT LeftHandIndex1
									{
										OFFSET 0.715260 -0.000000 -0.000000
										CHANNELS 3 Zrotation Yrotation Xrotation
										End Site
										{
											OFFSET 0.000000 0.000000 0.000000
										}
									}
								}
								JOINT LThumb
								{
									OFFSET 0.000000 0.000000 0.000000
									CHANNELS 3 Zrotation Yrotation Xrotation
									End Site
									{
										OFFSET 0.000000 0.000000 0.000000
									}
								}
							}
						}
					}
				}
				JOINT RightShoulder
				{
					OFFSET 0.000000 0.000000 0.000000
					CHANNELS 3 Zrotation Yrotation Xrotation
					JOINT RightArm
					{
						OFFSET -3.136600 1.374050 -0.404650
						CHANNELS 3 Zrotation Yrotation Xrotation
						JOINT RightForeArm
						{
							OFFSET -5.241900 -0.000000 -0.000000
							CHANNELS 3 Zrotation Yrotation Xrotation
							JOINT RightHand
							{
								OFFSET -3.444170 -0.000000 -0.000000
								CHANNELS 3 Zrotation Yrotation Xrotation
								JOINT RightFingerBase
								{
									OFFSET 0.000000 0.000000 0.000000
									CHANNELS 3 Zrotation Yrotation Xrotation
									JOINT RightHandIndex1
									{
										OFFSET -0.622530 -0.000000 -0.000000
										CHANNELS 3 Zrotation Yrotation Xrotation
										End Site
										{
											OFFSET 0.000000 0.000000 0.000000
										}
									}
								}
								JOINT RThumb
								{
									OFFSET 0.000000 0.000000 0.000000
									CHANNELS 3 Zrotation Yrotation Xrotation
									End Site
									{
										OFFSET 0.000000 0.000000 0.000000
									}
								}
							}
						}
					}
				}
			}
		}
	}
}
MOTION
Frames: 9
Frame Time: 0.008333
4.972115 17.864139 -27.868731 0.323893 -2.707905 10.984103 -4.674480 -1.231266 -0.168326 -15.277898 -2.879372 -21.678871 2.036462 10.514280 30.374896 0.891865 2.093126 -19.313891 0.745100 5.513800 15.380100 1.920119 0.653153 -0.839230 17.351782 7.952042 -21.136790 -3.744197 -11.745453 35.328841 -0.881158 -7.333062 -23.636475 -1.472200 -7.667300 21.708000 -0.682921 -0.162962 -4.016133 0.778791 -0.355403 -4.407367 3.448803 -0.411122 4.423576 -4.620048 -1.055232 -11.324511 5.539323 -1.495178 6.335119 1.117700 -0.577000 2.002700 11.186240 -3.433354 2.355034 -102.706419 7.442889 33.250489 26.766368 -39.264677 -7.326656 -0.350628 2.270854 -8.994120 13.985707 7.770118 1.342800 -7.125000 0.000000 0.000000 -10.549000 35.373400 2.530200 -8.572977 2.905283 0.979893 94.030725 -4.330752 32.274267 -21.628565 32.570544 -6.066699 0.414065 -0.836281 13.503101 -27.929608 -20.378946 10.263200 7.125000 0.000000 0.000000 -0.231100 -51.877400 0.039100 
4.972221 17.864245 -27.870323 0.347407 -2.685358 11.000007 -4.676841 -1.231559 -0.171136 -15.295200 -2.938804 -21.674340 2.033873 10.509019 30.361233 0.889708 2.107634 -19.311389 0.754300 5.547000 15.475500 1.921612 0.653719 -0.838238 17.321037 7.969108 -21.161090 -3.745785 -11.747417 35.336220 -0.887843 -7.299609 -23.661024 -1.513400 -7.769100 22.015000 -0.701997 -0.170385 -4.008949 0.774108 -0.363644 -4.415048 3.449363 -0.414780 4.405458 -4.634005 -1.052686 -11.312176 5.540464 -1.491499 6.310416 1.120900 -0.575900 1.992200 11.186948 -3.436290 2.355743 -102.721859 7.451747 33.188716 26.741308 -39.244305 -7.318442 -0.349702 2.274133 -8.977985 14.021543 7.830900 1.360500 -7.125000 0.000000 0.000000 -10.528800 35.433100 2.509700 -8.574280 2.905536 0.978332 94.030618 -4.336947 32.307985 -21.615959 32.550185 -6.052225 0.421015 -0.846669 13.525976 -25.898925 -21.855911 10.106300 7.125000 0.000000 0.000000 2.185000 -53.110700 -0.436100 
4.972433 17.864881 -27.871914 0.333623 -2.689332 11.015581 -4.676800 -1.231534 -0.171926 -15.277192 -2.958957 -21.682922 2.032386 10.506774 30.353960 0.890242 2.099915 -19.307631 0.760100 5.567900 15.535600 1.921377 0.653264 -0.837464 17.333601 7.982529 -21.180650 -3.744667 -11.745859 35.332248 -0.873381 -7.390087 -23.626032 -1.446800 -7.603600 21.516400 -0.687903 -0.164815 -3.984131 0.778272 -0.357746 -4.430827 3.454028 -0.410342 4.362964 -4.647951 -1.052680 -11.348455 5.522765 -1.484356 6.356868 1.119100 -0.571700 2.016700 11.186646 -3.437570 2.355878 -102.747480 7.488901 33.135383 26.741742 -39.241327 -7.313528 -0.350334 2.269495 -8.956705 13.950080 7.736623 1.331500 -7.125000 0.000000 0.000000 -10.572200 35.339600 2.544800 -8.574166 2.911137 0.977735 94.020105 -4.354009 32.319725 -21.610132 32.541958 -6.050102 0.420803 -0.846262 13.527202 -25.877093 -21.968375 10.147500 7.125000 0.000000 0.000000 2.236700 -53.227900 -0.452900 
4.972115 17.865624 -27.872657 0.336964 -2.657901 11.030893 -4.674439 -1.233952 -0.172886 -15.280947 -2.897269 -21.727884 2.031116 10.505789 30.347034 0.898943 2.005758 -19.275587 0.753900 5.545500 15.471100 1.920971 0.654158 -0.838665 17.333591 8.005773 -21.192299 -3.743769 -11.744712 35.329527 -0.866399 -7.455688 -23.629857 -1.439900 -7.586200 21.464200 -0.698043 -0.167333 -4.018911 0.779708 -0.360726 -4.426445 3.463196 -0.412974 4.390828 -4.637893 -1.052163 -11.363064 5.501312 -1.480636 6.364862 1.110100 -0.570100 2.021100 11.188476 -3.433945 2.354845 -102.758985 7.470775 33.123690 26.713845 -39.217657 -7.300534 -0.349993 2.269909 -8.956722 13.945285 7.741822 1.332300 -7.125000 0.000000 0.000000 -10.577200 35.344400 2.544700 -8.574588 2.910770 0.979143 94.018294 -4.343525 32.314367 -21.601294 32.538018 -6.053431 0.413139 -0.836088 13.496669 -27.956034 -20.373154 10.270800 7.125000 0.000000 0.000000 -0.258200 -51.875500 0.043700 
4.971903 17.864351 -27.873081 0.358799 -2.616651 11.018044 -4.678856 -1.230570 -0.172897 -15.292600 -2.999251 -21.671875 2.031121 10.504140 30.346871 0.894540 2.081669 -19.324650 0.750500 5.533200 15.435900 1.923803 0.653926 -0.836780 17.312608 8.038601 -21.152075 -3.742346 -11.742257 35.321206 -0.889570 -7.347344 -23.719155 -1.517800 -7.779700 22.046800 -0.719333 -0.179667 -3.988714 0.778915 -0.374729 -4.434926 3.470932 -0.419876 4.359579 -4.639665 -1.048838 -11.364660 5.485559 -1.473347 6.384794 1.105700 -0.566500 2.028700 11.188783 -3.435764 2.355430 -102.761532 7.497417 33.111709 26.700891 -39.204433 -7.293787 -0.352599 2.271729 -8.960777 13.921727 7.796105 1.343000 -7.125000 0.000000 0.000000 -10.602800 35.396100 2.537500 -8.575129 2.913924 0.978680 94.014345 -4.353147 32.328442 -21.585506 32.517339 -6.043948 0.414102 -0.838241 13.515254 -27.512934 -20.730169 10.261700 7.125000 0.000000 0.000000 0.266800 -52.186500 -0.047200 
4.971903 17.864245 -27.873823 0.362821 -2.586197 11.022334 -4.679089 -1.230582 -0.173429 -15.293049 -3.006274 -21.675994 2.030742 10.503526 30.344896 0.897519 2.059893 -19.325833 0.748800 5.527400 15.419200 1.924780 0.653985 -0.836465 17.310314 8.076691 -21.136207 -3.740522 -11.739389 35.312701 -0.894389 -7.349896 -23.761498 -1.536200 -7.824700 22.182900 -0.724106 -0.185072 -3.986539 0.780473 -0.381594 -4.438843 3.476391 -0.423202 4.351837 -4.642482 -1.046865 -11.371166 5.473073 -1.468080 6.396954 1.102600 -0.563900 2.034100 11.189443 -3.435803 2.355551 -102.771105 7.507515 33.090854 26.687095 -39.191733 -7.286853 -0.353725 2.272339 -8.951650 13.902748 7.816739 1.346200 -7.125000 0.000000 0.000000 -10.620300 35.415500 2.536700 -8.575367 2.915576 0.978672 94.008527 -4.357129 32.338520 -21.579440 32.510057 -6.041443 0.413462 -0.837497 13.514059 -27.654154 -20.623374 10.268500 7.125000 0.000000 0.000000 0.100400 -52.095400 -0.017500 
4.971797 17.864139 -27.874354 0.363171 -2.554910 11.026298 -4.678753 -1.230729 -0.173659 -15.290512 -3.000604 -21.685248 2.030733 10.503814 30.344712 0.901876 2.024876 -19.323805 0.748100 5.524800 15.411600 1.925674 0.653852 -0.836375 17.312291 8.128394 -21.112693 -3.738323 -11.736163 35.303086 -0.894962 -7.389161 -23.803253 -1.561900 -7.886800 22.370800 -0.724782 -0.190875 -3.984139 0.782646 -0.389196 -4.442472 3.480313 -0.426848 4.344528 -4.643859 -1.044786 -11.377734 5.460731 -1.462721 6.409254 1.099200 -0.561300 2.039600 11.189965 -3.435758 2.355609 -102.779816 7.518333 33.072250 26.677179 -39.181521 -7.280338 -0.354749 2.271457 -8.938050 13.869423 7.807979 1.341100 -7.125000 0.000000 0.000000 -10.645200 35.406000 2.545300 -8.575450 2.917323 0.978704 94.002633 -4.360845 32.348664 -21.575404 32.505219 -6.040010 0.412774 -0.836558 13.511991 -27.832480 -20.488456 10.276400 7.125000 0.000000 0.000000 -0.108800 -51.979900 0.018700 
4.971691 17.864033 -27.874884 0.361352 -2.518903 11.030193 -4.678194 -1.231025 -0.173658 -15.285789 -2.986597 -21.696906 2.030317 10.503459 30.342269 0.907256 1.977746 -19.316938 0.747900 5.524000 15.409500 1.926753 0.653688 -0.836409 17.316924 8.191240 -21.082170 -3.735803 -11.732396 35.292022 -0.899023 -7.420664 -23.865374 -1.583700 -7.939100 22.529400 -0.723371 -0.198323 -3.983145 0.785438 -0.399419 -4.445277 3.483647 -0.431731 4.339637 -4.645962 -1.041993 -11.380674 5.452395 -1.457191 6.416330 1.097300 -0.558600 2.042400 11.190413 -3.435845 2.355839 -102.787819 7.527677 33.054354 26.668896 -39.173835 -7.275863 -0.355565 2.271515 -8.923382 13.850757 7.816801 1.341500 -7.125000 0.000000 0.000000 -10.660700 35.414100 2.547000 -8.575339 2.918582 0.978683 93.996006 -4.364895 32.361334 -21.575907 32.505408 -6.040470 0.412495 -0.836042 13.507131 -27.941940 -20.395821 10.276100 7.125000 0.000000 0.000000 -0.238900 -51.897800 0.040600 
4.971691 17.863927 -27.875309 0.361812 -2.486167 11.033613 -4.677891 -1.231167 -0.173587 -15.283568 -2.975343 -21.706128 2.029838 10.503013 30.339319 0.912995 1.930941 -19.314254 0.749700 5.530600 15.428400 1.927857 0.653384 -0.836606 17.318046 8.263739 -21.047283 -3.732940 -11.728511 35.280433 -0.897899 -7.489349 -23.920838 -1.606300 -7.992800 22.692300 -0.724869 -0.205516 -3.981845 0.787881 -0.408880 -4.447164 3.488214 -0.436297 4.336289 -4.648659 -1.039910 -11.383535 5.445992 -1.453029 6.420932 1.096100 -0.556600 2.044400 11.190661 -3.436029 2.356185 -102.796535 7.536541 33.035325 26.664055 -39.169379 -7.272980 -0.355948 2.271334 -8.905904 13.836871 7.817553 1.340500 -7.125000 0.000000 0.000000 -10.671400 35.414400 2.549600 -8.575095 2.919622 0.978628 93.986896 -4.370040 32.378615 -21.582239 32.511706 -6.043308 0.412765 -0.836047 13.498294 -27.942286 -20.391970 10.274300 7.125000 0.000000 0.000000 -0.240200 -51.893600 0.040800 
